M48
; DRILL file {KiCad 8.0.3} date 2024-12-20T11:05:45+0100
; FORMAT={-:-/ absolute / inch / decimal}
; #@! TF.CreationDate,2024-12-20T11:05:45+01:00
; #@! TF.GenerationSoftware,Kicad,Pcbnew,8.0.3
; #@! TF.FileFunction,Plated,1,2,PTH
FMAT,2
INCH
; #@! TA.AperFunction,Plated,PTH,ViaDrill
T1C0.0118
; #@! TA.AperFunction,Plated,PTH,ComponentDrill
T2C0.0354
%
G90
G05
T1
X2.0453Y-6.1713
X2.0453Y-6.2697
X2.1594Y-5.8563
X2.4469Y-5.75
X2.4626Y-5.8327
X2.5295Y-4.687
X2.6201Y-5.8287
X2.6831Y-5.7028
X2.6949Y-3.7185
X2.8681Y-4.5846
X3.0177Y-4.6476
X3.0217Y-5.2421
X3.0354Y-5.189
X3.0807Y-3.5846
X3.0807Y-4.5217
X3.2028Y-5.3169
X3.2264Y-3.6634
X3.2894Y-3.5295
X3.2972Y-4.1791
X3.3071Y-4.122
X3.4862Y-4.2539
X3.6161Y-3.0768
X3.6417Y-3.0079
X3.6476Y-5.5689
X3.6594Y-4.813
X3.7303Y-5.4902
X3.7382Y-5.1909
X3.7421Y-4.7224
X3.7461Y-3.2028
X3.8799Y-2.5177
X3.8996Y-4.4075
X3.9114Y-5.4823
X3.9587Y-5.5295
X4.0177Y-4.4075
X4.0335Y-2.5217
X4.1476Y-5.5728
X4.1791Y-5.4783
X4.1831Y-3.2264
X4.1831Y-5.0453
X4.2657Y-4.7618
X4.2992Y-3.0157
X4.3091Y-3.0768
X4.4862Y-4.3012
X4.5236Y-2.4055
X4.5315Y-2.5157
X4.5945Y-4.0984
X4.6201Y-4.1791
X4.6417Y-2.8268
X4.6476Y-3.5295
X4.7028Y-3.6673
X4.8406Y-4.5138
X4.872Y-3.5846
X4.8917Y-4.6201
X4.9163Y-2.9203
X5.0276Y-4.0
X5.0571Y-4.5689
X5.1102Y-2.878
X5.1654Y-2.9882
X5.2047Y-4.9803
X5.2224Y-3.7185
X5.2343Y-5.6949
X5.2933Y-5.8366
X5.3219Y-4.1093
X5.3917Y-4.687
X5.4508Y-5.75
X5.5157Y-3.4449
X5.5157Y-4.063
X5.5187Y-5.0935
X5.5335Y-3.4902
X5.5669Y-4.1732
X5.6969Y-3.3701
X5.7126Y-5.0512
X5.7657Y-5.8602
X5.7677Y-5.1575
X5.7835Y-4.5079
X5.8051Y-4.5571
X5.876Y-6.1713
X5.8799Y-6.2736
X5.9173Y-5.0512
X5.9252Y-4.3819
X6.1024Y-5.6102
X6.1142Y-5.6654
X6.2087Y-3.8583
X6.2126Y-3.2598
X6.2126Y-3.9685
X6.2165Y-4.0866
X6.2874Y-2.9764
X6.2874Y-5.5354
X6.2913Y-3.2205
X6.2913Y-3.7638
X6.2913Y-3.9134
X6.3307Y-4.4882
X6.3701Y-2.4094
X6.3701Y-3.2205
X6.374Y-3.9055
X6.4449Y-6.2205
X6.4528Y-4.3819
X6.4528Y-4.4764
X6.5276Y-2.4094
X6.5276Y-3.2323
X6.5591Y-4.4882
X6.6063Y-3.2126
X6.6063Y-3.8819
X6.6102Y-5.5354
X6.6181Y-3.1102
X6.6457Y-3.1574
X6.6811Y-3.7913
X6.7795Y-5.6614
X6.7953Y-5.6102
X6.9291Y-4.4331
X7.1004Y-4.565
X7.1102Y-4.5079
X7.1378Y-5.1575
X7.185Y-5.0512
X7.2165Y-3.374
X7.3307Y-4.1772
X7.3543Y-3.5118
X7.3622Y-3.374
X7.3789Y-5.0935
X7.3898Y-4.0394
X7.5758Y-4.1132
X7.6969Y-4.9724
X7.7283Y-2.9921
X7.7874Y-2.8583
X7.8819Y-4.0
X7.9449Y-2.8543
X7.9695Y-2.9281
X8.252Y-2.8268
X8.3661Y-2.5157
X8.378Y-2.4094
T2
X4.2492Y-5.1902
X4.2492Y-5.7902
X4.3492Y-5.1902
X4.3492Y-5.7902
X4.4492Y-5.1902
X4.4492Y-5.7902
X4.5492Y-5.1902
X4.5492Y-5.7902
X4.6492Y-5.1902
X4.6492Y-5.7902
X4.7492Y-5.1902
X4.7492Y-5.7902
X4.8492Y-5.1902
X4.8492Y-5.7902
M30
