%TF.GenerationSoftware,KiCad,Pcbnew,8.0.3*%
%TF.CreationDate,2024-12-20T11:05:53+01:00*%
%TF.ProjectId,christmas-tree,63687269-7374-46d6-9173-2d747265652e,rev?*%
%TF.SameCoordinates,Original*%
%TF.FileFunction,Paste,Top*%
%TF.FilePolarity,Positive*%
%FSLAX46Y46*%
G04 Gerber Fmt 4.6, Leading zero omitted, Abs format (unit mm)*
G04 Created by KiCad (PCBNEW 8.0.3) date 2024-12-20 11:05:53*
%MOMM*%
%LPD*%
G01*
G04 APERTURE LIST*
G04 Aperture macros list*
%AMRoundRect*
0 Rectangle with rounded corners*
0 $1 Rounding radius*
0 $2 $3 $4 $5 $6 $7 $8 $9 X,Y pos of 4 corners*
0 Add a 4 corners polygon primitive as box body*
4,1,4,$2,$3,$4,$5,$6,$7,$8,$9,$2,$3,0*
0 Add four circle primitives for the rounded corners*
1,1,$1+$1,$2,$3*
1,1,$1+$1,$4,$5*
1,1,$1+$1,$6,$7*
1,1,$1+$1,$8,$9*
0 Add four rect primitives between the rounded corners*
20,1,$1+$1,$2,$3,$4,$5,0*
20,1,$1+$1,$4,$5,$6,$7,0*
20,1,$1+$1,$6,$7,$8,$9,0*
20,1,$1+$1,$8,$9,$2,$3,0*%
G04 Aperture macros list end*
%ADD10RoundRect,0.200000X-0.275000X0.200000X-0.275000X-0.200000X0.275000X-0.200000X0.275000X0.200000X0*%
%ADD11R,1.500000X0.900000*%
%ADD12RoundRect,0.200000X0.200000X0.275000X-0.200000X0.275000X-0.200000X-0.275000X0.200000X-0.275000X0*%
%ADD13RoundRect,0.250000X-0.650000X0.412500X-0.650000X-0.412500X0.650000X-0.412500X0.650000X0.412500X0*%
%ADD14RoundRect,0.200000X0.275000X-0.200000X0.275000X0.200000X-0.275000X0.200000X-0.275000X-0.200000X0*%
%ADD15RoundRect,0.200000X-0.200000X-0.275000X0.200000X-0.275000X0.200000X0.275000X-0.200000X0.275000X0*%
G04 APERTURE END LIST*
D10*
%TO.C,C104*%
X119250000Y-89725000D03*
X119250000Y-91375000D03*
%TD*%
D11*
%TO.C,D134*%
X204250000Y-75850000D03*
X204250000Y-72550000D03*
X199350000Y-72550000D03*
X199350000Y-75850000D03*
%TD*%
D12*
%TO.C,C108*%
X87075000Y-108050000D03*
X85425000Y-108050000D03*
%TD*%
D13*
%TO.C,C124*%
X115650000Y-140387500D03*
X115650000Y-143512500D03*
%TD*%
D11*
%TO.C,D102*%
X131000000Y-118100000D03*
X131000000Y-114800000D03*
X126100000Y-114800000D03*
X126100000Y-118100000D03*
%TD*%
%TO.C,D132*%
X194250000Y-105850000D03*
X194250000Y-102550000D03*
X189350000Y-102550000D03*
X189350000Y-105850000D03*
%TD*%
%TO.C,D126*%
X150250000Y-117850000D03*
X150250000Y-114550000D03*
X145350000Y-114550000D03*
X145350000Y-117850000D03*
%TD*%
%TO.C,D103*%
X114100000Y-102800000D03*
X114100000Y-106100000D03*
X119000000Y-106100000D03*
X119000000Y-102800000D03*
%TD*%
%TO.C,D131*%
X182250000Y-117850000D03*
X182250000Y-114550000D03*
X177350000Y-114550000D03*
X177350000Y-117850000D03*
%TD*%
%TO.C,D111*%
X60100000Y-144800000D03*
X60100000Y-148100000D03*
X65000000Y-148100000D03*
X65000000Y-144800000D03*
%TD*%
%TO.C,D109*%
X70100000Y-114800000D03*
X70100000Y-118100000D03*
X75000000Y-118100000D03*
X75000000Y-114800000D03*
%TD*%
%TO.C,D104*%
X126000000Y-93100000D03*
X126000000Y-89800000D03*
X121100000Y-89800000D03*
X121100000Y-93100000D03*
%TD*%
D12*
%TO.C,C106*%
X95075000Y-80050000D03*
X93425000Y-80050000D03*
%TD*%
D11*
%TO.C,D129*%
X174250000Y-145850000D03*
X174250000Y-142550000D03*
X169350000Y-142550000D03*
X169350000Y-145850000D03*
%TD*%
%TO.C,D125*%
X133350000Y-102650000D03*
X133350000Y-105950000D03*
X138250000Y-105950000D03*
X138250000Y-102650000D03*
%TD*%
%TO.C,D130*%
X189250000Y-130850000D03*
X189250000Y-127550000D03*
X184350000Y-127550000D03*
X184350000Y-130850000D03*
%TD*%
%TO.C,D107*%
X75100000Y-89800000D03*
X75100000Y-93100000D03*
X80000000Y-93100000D03*
X80000000Y-89800000D03*
%TD*%
D14*
%TO.C,C116*%
X145100000Y-131025000D03*
X145100000Y-129375000D03*
%TD*%
%TO.C,C112*%
X130100000Y-75825000D03*
X130100000Y-74175000D03*
%TD*%
D11*
%TO.C,D127*%
X138350000Y-127550000D03*
X138350000Y-130850000D03*
X143250000Y-130850000D03*
X143250000Y-127550000D03*
%TD*%
D10*
%TO.C,C101*%
X134250000Y-144725000D03*
X134250000Y-146375000D03*
%TD*%
D11*
%TO.C,D133*%
X189250000Y-90850000D03*
X189250000Y-87550000D03*
X184350000Y-87550000D03*
X184350000Y-90850000D03*
%TD*%
%TO.C,D108*%
X82100000Y-102800000D03*
X82100000Y-106100000D03*
X87000000Y-106100000D03*
X87000000Y-102800000D03*
%TD*%
%TO.C,D124*%
X143250000Y-90850000D03*
X143250000Y-87550000D03*
X138350000Y-87550000D03*
X138350000Y-90850000D03*
%TD*%
D15*
%TO.C,C120*%
X177375000Y-112600000D03*
X179025000Y-112600000D03*
%TD*%
%TO.C,C122*%
X184275000Y-85700000D03*
X185925000Y-85700000D03*
%TD*%
D11*
%TO.C,D110*%
X75100000Y-129800000D03*
X75100000Y-133100000D03*
X80000000Y-133100000D03*
X80000000Y-129800000D03*
%TD*%
%TO.C,D101*%
X141000000Y-148100000D03*
X141000000Y-144800000D03*
X136100000Y-144800000D03*
X136100000Y-148100000D03*
%TD*%
%TO.C,D128*%
X158250000Y-145850000D03*
X158250000Y-142550000D03*
X153350000Y-142550000D03*
X153350000Y-145850000D03*
%TD*%
%TO.C,D105*%
X106100000Y-74800000D03*
X106100000Y-78100000D03*
X111000000Y-78100000D03*
X111000000Y-74800000D03*
%TD*%
D14*
%TO.C,C114*%
X140100000Y-106025000D03*
X140100000Y-104375000D03*
%TD*%
D12*
%TO.C,C110*%
X80075000Y-134950000D03*
X78425000Y-134950000D03*
%TD*%
D15*
%TO.C,C118*%
X169375000Y-140600000D03*
X171025000Y-140600000D03*
%TD*%
D11*
%TO.C,D106*%
X90100000Y-74800000D03*
X90100000Y-78100000D03*
X95000000Y-78100000D03*
X95000000Y-74800000D03*
%TD*%
D10*
%TO.C,C102*%
X124250000Y-114725000D03*
X124250000Y-116375000D03*
%TD*%
D11*
%TO.C,D123*%
X123350000Y-72550000D03*
X123350000Y-75850000D03*
X128250000Y-75850000D03*
X128250000Y-72550000D03*
%TD*%
M02*
