%TF.GenerationSoftware,KiCad,Pcbnew,8.0.3*%
%TF.CreationDate,2024-12-20T11:05:53+01:00*%
%TF.ProjectId,christmas-tree,63687269-7374-46d6-9173-2d747265652e,rev?*%
%TF.SameCoordinates,Original*%
%TF.FileFunction,Soldermask,Top*%
%TF.FilePolarity,Negative*%
%FSLAX46Y46*%
G04 Gerber Fmt 4.6, Leading zero omitted, Abs format (unit mm)*
G04 Created by KiCad (PCBNEW 8.0.3) date 2024-12-20 11:05:53*
%MOMM*%
%LPD*%
G01*
G04 APERTURE LIST*
G04 Aperture macros list*
%AMRoundRect*
0 Rectangle with rounded corners*
0 $1 Rounding radius*
0 $2 $3 $4 $5 $6 $7 $8 $9 X,Y pos of 4 corners*
0 Add a 4 corners polygon primitive as box body*
4,1,4,$2,$3,$4,$5,$6,$7,$8,$9,$2,$3,0*
0 Add four circle primitives for the rounded corners*
1,1,$1+$1,$2,$3*
1,1,$1+$1,$4,$5*
1,1,$1+$1,$6,$7*
1,1,$1+$1,$8,$9*
0 Add four rect primitives between the rounded corners*
20,1,$1+$1,$2,$3,$4,$5,0*
20,1,$1+$1,$4,$5,$6,$7,0*
20,1,$1+$1,$6,$7,$8,$9,0*
20,1,$1+$1,$8,$9,$2,$3,0*%
G04 Aperture macros list end*
%ADD10C,0.300000*%
%ADD11C,2.000000*%
%ADD12RoundRect,0.200000X-0.275000X0.200000X-0.275000X-0.200000X0.275000X-0.200000X0.275000X0.200000X0*%
%ADD13R,1.500000X0.900000*%
%ADD14RoundRect,0.200000X0.200000X0.275000X-0.200000X0.275000X-0.200000X-0.275000X0.200000X-0.275000X0*%
%ADD15RoundRect,0.250000X-0.650000X0.412500X-0.650000X-0.412500X0.650000X-0.412500X0.650000X0.412500X0*%
%ADD16RoundRect,0.200000X0.275000X-0.200000X0.275000X0.200000X-0.275000X0.200000X-0.275000X-0.200000X0*%
%ADD17RoundRect,0.200000X-0.200000X-0.275000X0.200000X-0.275000X0.200000X0.275000X-0.200000X0.275000X0*%
%ADD18R,1.500000X1.500000*%
%ADD19C,1.500000*%
G04 APERTURE END LIST*
D10*
X103136653Y-157480828D02*
X103493796Y-158980828D01*
X103493796Y-158980828D02*
X103779510Y-157909400D01*
X103779510Y-157909400D02*
X104065225Y-158980828D01*
X104065225Y-158980828D02*
X104422368Y-157480828D01*
X105565225Y-158909400D02*
X105422368Y-158980828D01*
X105422368Y-158980828D02*
X105136654Y-158980828D01*
X105136654Y-158980828D02*
X104993796Y-158909400D01*
X104993796Y-158909400D02*
X104922368Y-158766542D01*
X104922368Y-158766542D02*
X104922368Y-158195114D01*
X104922368Y-158195114D02*
X104993796Y-158052257D01*
X104993796Y-158052257D02*
X105136654Y-157980828D01*
X105136654Y-157980828D02*
X105422368Y-157980828D01*
X105422368Y-157980828D02*
X105565225Y-158052257D01*
X105565225Y-158052257D02*
X105636654Y-158195114D01*
X105636654Y-158195114D02*
X105636654Y-158337971D01*
X105636654Y-158337971D02*
X104922368Y-158480828D01*
X106279510Y-158980828D02*
X106279510Y-157980828D01*
X106279510Y-157480828D02*
X106208082Y-157552257D01*
X106208082Y-157552257D02*
X106279510Y-157623685D01*
X106279510Y-157623685D02*
X106350939Y-157552257D01*
X106350939Y-157552257D02*
X106279510Y-157480828D01*
X106279510Y-157480828D02*
X106279510Y-157623685D01*
X106993796Y-158980828D02*
X106993796Y-157480828D01*
X107636654Y-158980828D02*
X107636654Y-158195114D01*
X107636654Y-158195114D02*
X107565225Y-158052257D01*
X107565225Y-158052257D02*
X107422368Y-157980828D01*
X107422368Y-157980828D02*
X107208082Y-157980828D01*
X107208082Y-157980828D02*
X107065225Y-158052257D01*
X107065225Y-158052257D02*
X106993796Y-158123685D01*
X108350939Y-157980828D02*
X108350939Y-158980828D01*
X108350939Y-158123685D02*
X108422368Y-158052257D01*
X108422368Y-158052257D02*
X108565225Y-157980828D01*
X108565225Y-157980828D02*
X108779511Y-157980828D01*
X108779511Y-157980828D02*
X108922368Y-158052257D01*
X108922368Y-158052257D02*
X108993797Y-158195114D01*
X108993797Y-158195114D02*
X108993797Y-158980828D01*
X110350940Y-158980828D02*
X110350940Y-158195114D01*
X110350940Y-158195114D02*
X110279511Y-158052257D01*
X110279511Y-158052257D02*
X110136654Y-157980828D01*
X110136654Y-157980828D02*
X109850940Y-157980828D01*
X109850940Y-157980828D02*
X109708082Y-158052257D01*
X110350940Y-158909400D02*
X110208082Y-158980828D01*
X110208082Y-158980828D02*
X109850940Y-158980828D01*
X109850940Y-158980828D02*
X109708082Y-158909400D01*
X109708082Y-158909400D02*
X109636654Y-158766542D01*
X109636654Y-158766542D02*
X109636654Y-158623685D01*
X109636654Y-158623685D02*
X109708082Y-158480828D01*
X109708082Y-158480828D02*
X109850940Y-158409400D01*
X109850940Y-158409400D02*
X110208082Y-158409400D01*
X110208082Y-158409400D02*
X110350940Y-158337971D01*
X111708083Y-158909400D02*
X111565225Y-158980828D01*
X111565225Y-158980828D02*
X111279511Y-158980828D01*
X111279511Y-158980828D02*
X111136654Y-158909400D01*
X111136654Y-158909400D02*
X111065225Y-158837971D01*
X111065225Y-158837971D02*
X110993797Y-158695114D01*
X110993797Y-158695114D02*
X110993797Y-158266542D01*
X110993797Y-158266542D02*
X111065225Y-158123685D01*
X111065225Y-158123685D02*
X111136654Y-158052257D01*
X111136654Y-158052257D02*
X111279511Y-157980828D01*
X111279511Y-157980828D02*
X111565225Y-157980828D01*
X111565225Y-157980828D02*
X111708083Y-158052257D01*
X112350939Y-158980828D02*
X112350939Y-157480828D01*
X112993797Y-158980828D02*
X112993797Y-158195114D01*
X112993797Y-158195114D02*
X112922368Y-158052257D01*
X112922368Y-158052257D02*
X112779511Y-157980828D01*
X112779511Y-157980828D02*
X112565225Y-157980828D01*
X112565225Y-157980828D02*
X112422368Y-158052257D01*
X112422368Y-158052257D02*
X112350939Y-158123685D01*
X113493797Y-157980828D02*
X114065225Y-157980828D01*
X113708082Y-157480828D02*
X113708082Y-158766542D01*
X113708082Y-158766542D02*
X113779511Y-158909400D01*
X113779511Y-158909400D02*
X113922368Y-158980828D01*
X113922368Y-158980828D02*
X114065225Y-158980828D01*
X114493797Y-158909400D02*
X114636654Y-158980828D01*
X114636654Y-158980828D02*
X114922368Y-158980828D01*
X114922368Y-158980828D02*
X115065225Y-158909400D01*
X115065225Y-158909400D02*
X115136654Y-158766542D01*
X115136654Y-158766542D02*
X115136654Y-158695114D01*
X115136654Y-158695114D02*
X115065225Y-158552257D01*
X115065225Y-158552257D02*
X114922368Y-158480828D01*
X114922368Y-158480828D02*
X114708083Y-158480828D01*
X114708083Y-158480828D02*
X114565225Y-158409400D01*
X114565225Y-158409400D02*
X114493797Y-158266542D01*
X114493797Y-158266542D02*
X114493797Y-158195114D01*
X114493797Y-158195114D02*
X114565225Y-158052257D01*
X114565225Y-158052257D02*
X114708083Y-157980828D01*
X114708083Y-157980828D02*
X114922368Y-157980828D01*
X114922368Y-157980828D02*
X115065225Y-158052257D01*
X115779511Y-158980828D02*
X115779511Y-157480828D01*
X115779511Y-158052257D02*
X115922369Y-157980828D01*
X115922369Y-157980828D02*
X116208083Y-157980828D01*
X116208083Y-157980828D02*
X116350940Y-158052257D01*
X116350940Y-158052257D02*
X116422369Y-158123685D01*
X116422369Y-158123685D02*
X116493797Y-158266542D01*
X116493797Y-158266542D02*
X116493797Y-158695114D01*
X116493797Y-158695114D02*
X116422369Y-158837971D01*
X116422369Y-158837971D02*
X116350940Y-158909400D01*
X116350940Y-158909400D02*
X116208083Y-158980828D01*
X116208083Y-158980828D02*
X115922369Y-158980828D01*
X115922369Y-158980828D02*
X115779511Y-158909400D01*
X117779512Y-158980828D02*
X117779512Y-158195114D01*
X117779512Y-158195114D02*
X117708083Y-158052257D01*
X117708083Y-158052257D02*
X117565226Y-157980828D01*
X117565226Y-157980828D02*
X117279512Y-157980828D01*
X117279512Y-157980828D02*
X117136654Y-158052257D01*
X117779512Y-158909400D02*
X117636654Y-158980828D01*
X117636654Y-158980828D02*
X117279512Y-158980828D01*
X117279512Y-158980828D02*
X117136654Y-158909400D01*
X117136654Y-158909400D02*
X117065226Y-158766542D01*
X117065226Y-158766542D02*
X117065226Y-158623685D01*
X117065226Y-158623685D02*
X117136654Y-158480828D01*
X117136654Y-158480828D02*
X117279512Y-158409400D01*
X117279512Y-158409400D02*
X117636654Y-158409400D01*
X117636654Y-158409400D02*
X117779512Y-158337971D01*
X119136655Y-157980828D02*
X119136655Y-158980828D01*
X118493797Y-157980828D02*
X118493797Y-158766542D01*
X118493797Y-158766542D02*
X118565226Y-158909400D01*
X118565226Y-158909400D02*
X118708083Y-158980828D01*
X118708083Y-158980828D02*
X118922369Y-158980828D01*
X118922369Y-158980828D02*
X119065226Y-158909400D01*
X119065226Y-158909400D02*
X119136655Y-158837971D01*
X119850940Y-158980828D02*
X119850940Y-157980828D01*
X119850940Y-158123685D02*
X119922369Y-158052257D01*
X119922369Y-158052257D02*
X120065226Y-157980828D01*
X120065226Y-157980828D02*
X120279512Y-157980828D01*
X120279512Y-157980828D02*
X120422369Y-158052257D01*
X120422369Y-158052257D02*
X120493798Y-158195114D01*
X120493798Y-158195114D02*
X120493798Y-158980828D01*
X120493798Y-158195114D02*
X120565226Y-158052257D01*
X120565226Y-158052257D02*
X120708083Y-157980828D01*
X120708083Y-157980828D02*
X120922369Y-157980828D01*
X120922369Y-157980828D02*
X121065226Y-158052257D01*
X121065226Y-158052257D02*
X121136655Y-158195114D01*
X121136655Y-158195114D02*
X121136655Y-158980828D01*
D11*
%TO.C,5V2*%
X166300000Y-80197299D03*
%TD*%
D12*
%TO.C,C104*%
X119250000Y-89725000D03*
X119250000Y-91375000D03*
%TD*%
D13*
%TO.C,D134*%
X204250000Y-75850000D03*
X204250000Y-72550000D03*
X199350000Y-72550000D03*
X199350000Y-75850000D03*
%TD*%
D14*
%TO.C,C108*%
X87075000Y-108050000D03*
X85425000Y-108050000D03*
%TD*%
D15*
%TO.C,C124*%
X115650000Y-140387500D03*
X115650000Y-143512500D03*
%TD*%
D13*
%TO.C,D102*%
X131000000Y-118100000D03*
X131000000Y-114800000D03*
X126100000Y-114800000D03*
X126100000Y-118100000D03*
%TD*%
%TO.C,D132*%
X194250000Y-105850000D03*
X194250000Y-102550000D03*
X189350000Y-102550000D03*
X189350000Y-105850000D03*
%TD*%
%TO.C,D126*%
X150250000Y-117850000D03*
X150250000Y-114550000D03*
X145350000Y-114550000D03*
X145350000Y-117850000D03*
%TD*%
%TO.C,D103*%
X114100000Y-102800000D03*
X114100000Y-106100000D03*
X119000000Y-106100000D03*
X119000000Y-102800000D03*
%TD*%
%TO.C,D131*%
X182250000Y-117850000D03*
X182250000Y-114550000D03*
X177350000Y-114550000D03*
X177350000Y-117850000D03*
%TD*%
%TO.C,D111*%
X60100000Y-144800000D03*
X60100000Y-148100000D03*
X65000000Y-148100000D03*
X65000000Y-144800000D03*
%TD*%
%TO.C,D109*%
X70100000Y-114800000D03*
X70100000Y-118100000D03*
X75000000Y-118100000D03*
X75000000Y-114800000D03*
%TD*%
%TO.C,D104*%
X126000000Y-93100000D03*
X126000000Y-89800000D03*
X121100000Y-89800000D03*
X121100000Y-93100000D03*
%TD*%
D14*
%TO.C,C106*%
X95075000Y-80050000D03*
X93425000Y-80050000D03*
%TD*%
D13*
%TO.C,D129*%
X174250000Y-145850000D03*
X174250000Y-142550000D03*
X169350000Y-142550000D03*
X169350000Y-145850000D03*
%TD*%
D11*
%TO.C,5V1*%
X102550000Y-140450000D03*
%TD*%
D13*
%TO.C,D125*%
X133350000Y-102650000D03*
X133350000Y-105950000D03*
X138250000Y-105950000D03*
X138250000Y-102650000D03*
%TD*%
%TO.C,D130*%
X189250000Y-130850000D03*
X189250000Y-127550000D03*
X184350000Y-127550000D03*
X184350000Y-130850000D03*
%TD*%
%TO.C,D107*%
X75100000Y-89800000D03*
X75100000Y-93100000D03*
X80000000Y-93100000D03*
X80000000Y-89800000D03*
%TD*%
D16*
%TO.C,C116*%
X145100000Y-131025000D03*
X145100000Y-129375000D03*
%TD*%
%TO.C,C112*%
X130100000Y-75825000D03*
X130100000Y-74175000D03*
%TD*%
D13*
%TO.C,D127*%
X138350000Y-127550000D03*
X138350000Y-130850000D03*
X143250000Y-130850000D03*
X143250000Y-127550000D03*
%TD*%
D12*
%TO.C,C101*%
X134250000Y-144725000D03*
X134250000Y-146375000D03*
%TD*%
D13*
%TO.C,D133*%
X189250000Y-90850000D03*
X189250000Y-87550000D03*
X184350000Y-87550000D03*
X184350000Y-90850000D03*
%TD*%
D11*
%TO.C,DIN1*%
X161300000Y-71197299D03*
%TD*%
D13*
%TO.C,D108*%
X82100000Y-102800000D03*
X82100000Y-106100000D03*
X87000000Y-106100000D03*
X87000000Y-102800000D03*
%TD*%
%TO.C,D124*%
X143250000Y-90850000D03*
X143250000Y-87550000D03*
X138350000Y-87550000D03*
X138350000Y-90850000D03*
%TD*%
D17*
%TO.C,C120*%
X177375000Y-112600000D03*
X179025000Y-112600000D03*
%TD*%
D11*
%TO.C,GND2*%
X166300000Y-75197299D03*
%TD*%
%TO.C,GND1*%
X102550000Y-145450000D03*
%TD*%
D17*
%TO.C,C122*%
X184275000Y-85700000D03*
X185925000Y-85700000D03*
%TD*%
D13*
%TO.C,D110*%
X75100000Y-129800000D03*
X75100000Y-133100000D03*
X80000000Y-133100000D03*
X80000000Y-129800000D03*
%TD*%
%TO.C,D101*%
X141000000Y-148100000D03*
X141000000Y-144800000D03*
X136100000Y-144800000D03*
X136100000Y-148100000D03*
%TD*%
D18*
%TO.C,U101*%
X123170000Y-131830000D03*
D19*
X120630000Y-131830000D03*
X118090000Y-131830000D03*
X115550000Y-131830000D03*
X113010000Y-131830000D03*
X110470000Y-131830000D03*
X107930000Y-131830000D03*
X107930000Y-147070000D03*
X110470000Y-147070000D03*
X113010000Y-147070000D03*
X115550000Y-147070000D03*
X118090000Y-147070000D03*
X120630000Y-147070000D03*
X123170000Y-147070000D03*
%TD*%
D13*
%TO.C,D128*%
X158250000Y-145850000D03*
X158250000Y-142550000D03*
X153350000Y-142550000D03*
X153350000Y-145850000D03*
%TD*%
%TO.C,D105*%
X106100000Y-74800000D03*
X106100000Y-78100000D03*
X111000000Y-78100000D03*
X111000000Y-74800000D03*
%TD*%
D16*
%TO.C,C114*%
X140100000Y-106025000D03*
X140100000Y-104375000D03*
%TD*%
D14*
%TO.C,C110*%
X80075000Y-134950000D03*
X78425000Y-134950000D03*
%TD*%
D17*
%TO.C,C118*%
X169375000Y-140600000D03*
X171025000Y-140600000D03*
%TD*%
D13*
%TO.C,D106*%
X90100000Y-74800000D03*
X90100000Y-78100000D03*
X95000000Y-78100000D03*
X95000000Y-74800000D03*
%TD*%
D12*
%TO.C,C102*%
X124250000Y-114725000D03*
X124250000Y-116375000D03*
%TD*%
D13*
%TO.C,D123*%
X123350000Y-72550000D03*
X123350000Y-75850000D03*
X128250000Y-75850000D03*
X128250000Y-72550000D03*
%TD*%
M02*
