%TF.GenerationSoftware,KiCad,Pcbnew,8.0.3*%
%TF.CreationDate,2024-12-20T11:05:53+01:00*%
%TF.ProjectId,christmas-tree,63687269-7374-46d6-9173-2d747265652e,rev?*%
%TF.SameCoordinates,Original*%
%TF.FileFunction,Legend,Bot*%
%TF.FilePolarity,Positive*%
%FSLAX46Y46*%
G04 Gerber Fmt 4.6, Leading zero omitted, Abs format (unit mm)*
G04 Created by KiCad (PCBNEW 8.0.3) date 2024-12-20 11:05:53*
%MOMM*%
%LPD*%
G01*
G04 APERTURE LIST*
%ADD10C,0.150000*%
%ADD11C,0.120000*%
G04 APERTURE END LIST*
D10*
X106616666Y-152004819D02*
X106616666Y-151004819D01*
X106616666Y-151004819D02*
X106378571Y-151004819D01*
X106378571Y-151004819D02*
X106235714Y-151052438D01*
X106235714Y-151052438D02*
X106140476Y-151147676D01*
X106140476Y-151147676D02*
X106092857Y-151242914D01*
X106092857Y-151242914D02*
X106045238Y-151433390D01*
X106045238Y-151433390D02*
X106045238Y-151576247D01*
X106045238Y-151576247D02*
X106092857Y-151766723D01*
X106092857Y-151766723D02*
X106140476Y-151861961D01*
X106140476Y-151861961D02*
X106235714Y-151957200D01*
X106235714Y-151957200D02*
X106378571Y-152004819D01*
X106378571Y-152004819D02*
X106616666Y-152004819D01*
X105426190Y-151004819D02*
X105235714Y-151004819D01*
X105235714Y-151004819D02*
X105140476Y-151052438D01*
X105140476Y-151052438D02*
X105045238Y-151147676D01*
X105045238Y-151147676D02*
X104997619Y-151338152D01*
X104997619Y-151338152D02*
X104997619Y-151671485D01*
X104997619Y-151671485D02*
X105045238Y-151861961D01*
X105045238Y-151861961D02*
X105140476Y-151957200D01*
X105140476Y-151957200D02*
X105235714Y-152004819D01*
X105235714Y-152004819D02*
X105426190Y-152004819D01*
X105426190Y-152004819D02*
X105521428Y-151957200D01*
X105521428Y-151957200D02*
X105616666Y-151861961D01*
X105616666Y-151861961D02*
X105664285Y-151671485D01*
X105664285Y-151671485D02*
X105664285Y-151338152D01*
X105664285Y-151338152D02*
X105616666Y-151147676D01*
X105616666Y-151147676D02*
X105521428Y-151052438D01*
X105521428Y-151052438D02*
X105426190Y-151004819D01*
X104569047Y-151004819D02*
X104569047Y-151814342D01*
X104569047Y-151814342D02*
X104521428Y-151909580D01*
X104521428Y-151909580D02*
X104473809Y-151957200D01*
X104473809Y-151957200D02*
X104378571Y-152004819D01*
X104378571Y-152004819D02*
X104188095Y-152004819D01*
X104188095Y-152004819D02*
X104092857Y-151957200D01*
X104092857Y-151957200D02*
X104045238Y-151909580D01*
X104045238Y-151909580D02*
X103997619Y-151814342D01*
X103997619Y-151814342D02*
X103997619Y-151004819D01*
X103664285Y-151004819D02*
X103092857Y-151004819D01*
X103378571Y-152004819D02*
X103378571Y-151004819D01*
X102235714Y-152004819D02*
X102807142Y-152004819D01*
X102521428Y-152004819D02*
X102521428Y-151004819D01*
X102521428Y-151004819D02*
X102616666Y-151147676D01*
X102616666Y-151147676D02*
X102711904Y-151242914D01*
X102711904Y-151242914D02*
X102807142Y-151290533D01*
D11*
%TO.C,D135*%
X198150000Y-76950000D02*
X205450000Y-76950000D01*
X198150000Y-75800000D02*
X198150000Y-76950000D01*
X198150000Y-71450000D02*
X205450000Y-71450000D01*
%TO.C,D114*%
X76200000Y-113700000D02*
X68900000Y-113700000D01*
X76200000Y-114850000D02*
X76200000Y-113700000D01*
X76200000Y-119200000D02*
X68900000Y-119200000D01*
%TO.C,D115*%
X80900000Y-101700000D02*
X88200000Y-101700000D01*
X80900000Y-106050000D02*
X80900000Y-107200000D01*
X80900000Y-107200000D02*
X88200000Y-107200000D01*
%TO.C,C109*%
X76327500Y-115787258D02*
X76327500Y-115312742D01*
X77372500Y-115787258D02*
X77372500Y-115312742D01*
%TO.C,D141*%
X159450000Y-146950000D02*
X152150000Y-146950000D01*
X159450000Y-142600000D02*
X159450000Y-141450000D01*
X159450000Y-141450000D02*
X152150000Y-141450000D01*
%TO.C,D119*%
X119900000Y-88700000D02*
X127200000Y-88700000D01*
X119900000Y-93050000D02*
X119900000Y-94200000D01*
X119900000Y-94200000D02*
X127200000Y-94200000D01*
%TO.C,D146*%
X129450000Y-76950000D02*
X122150000Y-76950000D01*
X129450000Y-72600000D02*
X129450000Y-71450000D01*
X129450000Y-71450000D02*
X122150000Y-71450000D01*
%TO.C,D117*%
X88900000Y-73700000D02*
X96200000Y-73700000D01*
X88900000Y-78050000D02*
X88900000Y-79200000D01*
X88900000Y-79200000D02*
X96200000Y-79200000D01*
%TO.C,C107*%
X81327500Y-90787258D02*
X81327500Y-90312742D01*
X82372500Y-90787258D02*
X82372500Y-90312742D01*
%TO.C,D144*%
X139450000Y-107050000D02*
X132150000Y-107050000D01*
X139450000Y-102700000D02*
X139450000Y-101550000D01*
X139450000Y-101550000D02*
X132150000Y-101550000D01*
%TO.C,D140*%
X175450000Y-146950000D02*
X168150000Y-146950000D01*
X175450000Y-142600000D02*
X175450000Y-141450000D01*
X175450000Y-141450000D02*
X168150000Y-141450000D01*
%TO.C,D145*%
X144450000Y-91950000D02*
X137150000Y-91950000D01*
X144450000Y-87600000D02*
X144450000Y-86450000D01*
X144450000Y-86450000D02*
X137150000Y-86450000D01*
%TO.C,C111*%
X66327500Y-145787258D02*
X66327500Y-145312742D01*
X67372500Y-145787258D02*
X67372500Y-145312742D01*
%TO.C,D120*%
X112900000Y-101700000D02*
X120200000Y-101700000D01*
X112900000Y-106050000D02*
X112900000Y-107200000D01*
X112900000Y-107200000D02*
X120200000Y-107200000D01*
%TO.C,D137*%
X188150000Y-106950000D02*
X195450000Y-106950000D01*
X188150000Y-105800000D02*
X188150000Y-106950000D01*
X188150000Y-101450000D02*
X195450000Y-101450000D01*
%TO.C,C105*%
X107087258Y-79427500D02*
X106612742Y-79427500D01*
X107087258Y-80472500D02*
X106612742Y-80472500D01*
%TO.C,D116*%
X81200000Y-88700000D02*
X73900000Y-88700000D01*
X81200000Y-89850000D02*
X81200000Y-88700000D01*
X81200000Y-94200000D02*
X73900000Y-94200000D01*
%TO.C,D118*%
X104900000Y-73700000D02*
X112200000Y-73700000D01*
X104900000Y-78050000D02*
X104900000Y-79200000D01*
X104900000Y-79200000D02*
X112200000Y-79200000D01*
%TO.C,D121*%
X124900000Y-113700000D02*
X132200000Y-113700000D01*
X124900000Y-118050000D02*
X124900000Y-119200000D01*
X124900000Y-119200000D02*
X132200000Y-119200000D01*
%TO.C,D138*%
X183450000Y-118950000D02*
X176150000Y-118950000D01*
X183450000Y-114600000D02*
X183450000Y-113450000D01*
X183450000Y-113450000D02*
X176150000Y-113450000D01*
%TO.C,D112*%
X66200000Y-143700000D02*
X58900000Y-143700000D01*
X66200000Y-144850000D02*
X66200000Y-143700000D01*
X66200000Y-149200000D02*
X58900000Y-149200000D01*
%TO.C,D143*%
X151450000Y-118950000D02*
X144150000Y-118950000D01*
X151450000Y-114600000D02*
X151450000Y-113450000D01*
X151450000Y-113450000D02*
X144150000Y-113450000D01*
%TO.C,C115*%
X149262742Y-113222500D02*
X149737258Y-113222500D01*
X149262742Y-112177500D02*
X149737258Y-112177500D01*
%TO.C,D142*%
X144450000Y-131950000D02*
X137150000Y-131950000D01*
X144450000Y-127600000D02*
X144450000Y-126450000D01*
X144450000Y-126450000D02*
X137150000Y-126450000D01*
%TO.C,D122*%
X134900000Y-143700000D02*
X142200000Y-143700000D01*
X134900000Y-148050000D02*
X134900000Y-149200000D01*
X134900000Y-149200000D02*
X142200000Y-149200000D01*
%TO.C,C103*%
X115087258Y-107527500D02*
X114612742Y-107527500D01*
X115087258Y-108572500D02*
X114612742Y-108572500D01*
%TO.C,C121*%
X188022500Y-104862742D02*
X188022500Y-105337258D01*
X186977500Y-104862742D02*
X186977500Y-105337258D01*
%TO.C,D136*%
X190450000Y-91950000D02*
X183150000Y-91950000D01*
X190450000Y-87600000D02*
X190450000Y-86450000D01*
X190450000Y-86450000D02*
X183150000Y-86450000D01*
%TO.C,C117*%
X157262742Y-141222500D02*
X157737258Y-141222500D01*
X157262742Y-140177500D02*
X157737258Y-140177500D01*
%TO.C,C113*%
X142262742Y-86222500D02*
X142737258Y-86222500D01*
X142262742Y-85177500D02*
X142737258Y-85177500D01*
%TO.C,D139*%
X183150000Y-131950000D02*
X190450000Y-131950000D01*
X183150000Y-130800000D02*
X183150000Y-131950000D01*
X183150000Y-126450000D02*
X190450000Y-126450000D01*
%TO.C,C123*%
X198022500Y-74862742D02*
X198022500Y-75337258D01*
X196977500Y-74862742D02*
X196977500Y-75337258D01*
%TO.C,D113*%
X73900000Y-128700000D02*
X81200000Y-128700000D01*
X73900000Y-133050000D02*
X73900000Y-134200000D01*
X73900000Y-134200000D02*
X81200000Y-134200000D01*
%TO.C,C119*%
X183022500Y-129862742D02*
X183022500Y-130337258D01*
X181977500Y-129862742D02*
X181977500Y-130337258D01*
%TD*%
M02*
