%TF.GenerationSoftware,KiCad,Pcbnew,8.0.3*%
%TF.CreationDate,2024-12-20T11:05:53+01:00*%
%TF.ProjectId,christmas-tree,63687269-7374-46d6-9173-2d747265652e,rev?*%
%TF.SameCoordinates,Original*%
%TF.FileFunction,Paste,Bot*%
%TF.FilePolarity,Positive*%
%FSLAX46Y46*%
G04 Gerber Fmt 4.6, Leading zero omitted, Abs format (unit mm)*
G04 Created by KiCad (PCBNEW 8.0.3) date 2024-12-20 11:05:53*
%MOMM*%
%LPD*%
G01*
G04 APERTURE LIST*
G04 Aperture macros list*
%AMRoundRect*
0 Rectangle with rounded corners*
0 $1 Rounding radius*
0 $2 $3 $4 $5 $6 $7 $8 $9 X,Y pos of 4 corners*
0 Add a 4 corners polygon primitive as box body*
4,1,4,$2,$3,$4,$5,$6,$7,$8,$9,$2,$3,0*
0 Add four circle primitives for the rounded corners*
1,1,$1+$1,$2,$3*
1,1,$1+$1,$4,$5*
1,1,$1+$1,$6,$7*
1,1,$1+$1,$8,$9*
0 Add four rect primitives between the rounded corners*
20,1,$1+$1,$2,$3,$4,$5,0*
20,1,$1+$1,$4,$5,$6,$7,0*
20,1,$1+$1,$6,$7,$8,$9,0*
20,1,$1+$1,$8,$9,$2,$3,0*%
G04 Aperture macros list end*
%ADD10R,1.500000X0.900000*%
%ADD11RoundRect,0.200000X-0.275000X0.200000X-0.275000X-0.200000X0.275000X-0.200000X0.275000X0.200000X0*%
%ADD12RoundRect,0.200000X-0.200000X-0.275000X0.200000X-0.275000X0.200000X0.275000X-0.200000X0.275000X0*%
%ADD13RoundRect,0.200000X0.200000X0.275000X-0.200000X0.275000X-0.200000X-0.275000X0.200000X-0.275000X0*%
%ADD14RoundRect,0.200000X0.275000X-0.200000X0.275000X0.200000X-0.275000X0.200000X-0.275000X-0.200000X0*%
G04 APERTURE END LIST*
D10*
%TO.C,D135*%
X204250000Y-72550000D03*
X204250000Y-75850000D03*
X199350000Y-75850000D03*
X199350000Y-72550000D03*
%TD*%
%TO.C,D114*%
X70100000Y-118100000D03*
X70100000Y-114800000D03*
X75000000Y-114800000D03*
X75000000Y-118100000D03*
%TD*%
%TO.C,D115*%
X87000000Y-102800000D03*
X87000000Y-106100000D03*
X82100000Y-106100000D03*
X82100000Y-102800000D03*
%TD*%
D11*
%TO.C,C109*%
X76850000Y-114725000D03*
X76850000Y-116375000D03*
%TD*%
D10*
%TO.C,D141*%
X153350000Y-145850000D03*
X153350000Y-142550000D03*
X158250000Y-142550000D03*
X158250000Y-145850000D03*
%TD*%
%TO.C,D119*%
X126000000Y-89800000D03*
X126000000Y-93100000D03*
X121100000Y-93100000D03*
X121100000Y-89800000D03*
%TD*%
%TO.C,D146*%
X123350000Y-75850000D03*
X123350000Y-72550000D03*
X128250000Y-72550000D03*
X128250000Y-75850000D03*
%TD*%
%TO.C,D117*%
X95000000Y-74800000D03*
X95000000Y-78100000D03*
X90100000Y-78100000D03*
X90100000Y-74800000D03*
%TD*%
D11*
%TO.C,C107*%
X81850000Y-89725000D03*
X81850000Y-91375000D03*
%TD*%
D10*
%TO.C,D144*%
X133350000Y-105950000D03*
X133350000Y-102650000D03*
X138250000Y-102650000D03*
X138250000Y-105950000D03*
%TD*%
%TO.C,D140*%
X169350000Y-145850000D03*
X169350000Y-142550000D03*
X174250000Y-142550000D03*
X174250000Y-145850000D03*
%TD*%
%TO.C,D145*%
X138350000Y-90850000D03*
X138350000Y-87550000D03*
X143250000Y-87550000D03*
X143250000Y-90850000D03*
%TD*%
D11*
%TO.C,C111*%
X66850000Y-144725000D03*
X66850000Y-146375000D03*
%TD*%
D10*
%TO.C,D120*%
X119000000Y-102800000D03*
X119000000Y-106100000D03*
X114100000Y-106100000D03*
X114100000Y-102800000D03*
%TD*%
%TO.C,D137*%
X194250000Y-102550000D03*
X194250000Y-105850000D03*
X189350000Y-105850000D03*
X189350000Y-102550000D03*
%TD*%
D12*
%TO.C,C105*%
X106025000Y-79950000D03*
X107675000Y-79950000D03*
%TD*%
D10*
%TO.C,D116*%
X75100000Y-93100000D03*
X75100000Y-89800000D03*
X80000000Y-89800000D03*
X80000000Y-93100000D03*
%TD*%
%TO.C,D118*%
X111000000Y-74800000D03*
X111000000Y-78100000D03*
X106100000Y-78100000D03*
X106100000Y-74800000D03*
%TD*%
%TO.C,D121*%
X131000000Y-114800000D03*
X131000000Y-118100000D03*
X126100000Y-118100000D03*
X126100000Y-114800000D03*
%TD*%
%TO.C,D138*%
X177350000Y-117850000D03*
X177350000Y-114550000D03*
X182250000Y-114550000D03*
X182250000Y-117850000D03*
%TD*%
%TO.C,D112*%
X60100000Y-148100000D03*
X60100000Y-144800000D03*
X65000000Y-144800000D03*
X65000000Y-148100000D03*
%TD*%
%TO.C,D143*%
X145350000Y-117850000D03*
X145350000Y-114550000D03*
X150250000Y-114550000D03*
X150250000Y-117850000D03*
%TD*%
D13*
%TO.C,C115*%
X150325000Y-112700000D03*
X148675000Y-112700000D03*
%TD*%
D10*
%TO.C,D142*%
X138350000Y-130850000D03*
X138350000Y-127550000D03*
X143250000Y-127550000D03*
X143250000Y-130850000D03*
%TD*%
%TO.C,D122*%
X141000000Y-144800000D03*
X141000000Y-148100000D03*
X136100000Y-148100000D03*
X136100000Y-144800000D03*
%TD*%
D12*
%TO.C,C103*%
X114025000Y-108050000D03*
X115675000Y-108050000D03*
%TD*%
D14*
%TO.C,C121*%
X187500000Y-105925000D03*
X187500000Y-104275000D03*
%TD*%
D10*
%TO.C,D136*%
X184350000Y-90850000D03*
X184350000Y-87550000D03*
X189250000Y-87550000D03*
X189250000Y-90850000D03*
%TD*%
D13*
%TO.C,C117*%
X158325000Y-140700000D03*
X156675000Y-140700000D03*
%TD*%
%TO.C,C113*%
X143325000Y-85700000D03*
X141675000Y-85700000D03*
%TD*%
D10*
%TO.C,D139*%
X189250000Y-127550000D03*
X189250000Y-130850000D03*
X184350000Y-130850000D03*
X184350000Y-127550000D03*
%TD*%
D14*
%TO.C,C123*%
X197500000Y-75925000D03*
X197500000Y-74275000D03*
%TD*%
D10*
%TO.C,D113*%
X80000000Y-129800000D03*
X80000000Y-133100000D03*
X75100000Y-133100000D03*
X75100000Y-129800000D03*
%TD*%
D14*
%TO.C,C119*%
X182500000Y-130925000D03*
X182500000Y-129275000D03*
%TD*%
M02*
