%TF.GenerationSoftware,KiCad,Pcbnew,8.0.3*%
%TF.CreationDate,2024-12-20T11:05:53+01:00*%
%TF.ProjectId,christmas-tree,63687269-7374-46d6-9173-2d747265652e,rev?*%
%TF.SameCoordinates,Original*%
%TF.FileFunction,Legend,Top*%
%TF.FilePolarity,Positive*%
%FSLAX46Y46*%
G04 Gerber Fmt 4.6, Leading zero omitted, Abs format (unit mm)*
G04 Created by KiCad (PCBNEW 8.0.3) date 2024-12-20 11:05:53*
%MOMM*%
%LPD*%
G01*
G04 APERTURE LIST*
%ADD10C,0.300000*%
%ADD11C,0.150000*%
%ADD12C,0.120000*%
%ADD13C,0.100000*%
G04 APERTURE END LIST*
D10*
X123665225Y-158980828D02*
X123665225Y-157480828D01*
X123665225Y-158909400D02*
X123522367Y-158980828D01*
X123522367Y-158980828D02*
X123236653Y-158980828D01*
X123236653Y-158980828D02*
X123093796Y-158909400D01*
X123093796Y-158909400D02*
X123022367Y-158837971D01*
X123022367Y-158837971D02*
X122950939Y-158695114D01*
X122950939Y-158695114D02*
X122950939Y-158266542D01*
X122950939Y-158266542D02*
X123022367Y-158123685D01*
X123022367Y-158123685D02*
X123093796Y-158052257D01*
X123093796Y-158052257D02*
X123236653Y-157980828D01*
X123236653Y-157980828D02*
X123522367Y-157980828D01*
X123522367Y-157980828D02*
X123665225Y-158052257D01*
X124379510Y-158980828D02*
X124379510Y-157980828D01*
X124379510Y-157480828D02*
X124308082Y-157552257D01*
X124308082Y-157552257D02*
X124379510Y-157623685D01*
X124379510Y-157623685D02*
X124450939Y-157552257D01*
X124450939Y-157552257D02*
X124379510Y-157480828D01*
X124379510Y-157480828D02*
X124379510Y-157623685D01*
X125665225Y-158909400D02*
X125522368Y-158980828D01*
X125522368Y-158980828D02*
X125236654Y-158980828D01*
X125236654Y-158980828D02*
X125093796Y-158909400D01*
X125093796Y-158909400D02*
X125022368Y-158766542D01*
X125022368Y-158766542D02*
X125022368Y-158195114D01*
X125022368Y-158195114D02*
X125093796Y-158052257D01*
X125093796Y-158052257D02*
X125236654Y-157980828D01*
X125236654Y-157980828D02*
X125522368Y-157980828D01*
X125522368Y-157980828D02*
X125665225Y-158052257D01*
X125665225Y-158052257D02*
X125736654Y-158195114D01*
X125736654Y-158195114D02*
X125736654Y-158337971D01*
X125736654Y-158337971D02*
X125022368Y-158480828D01*
X126308082Y-158909400D02*
X126450939Y-158980828D01*
X126450939Y-158980828D02*
X126736653Y-158980828D01*
X126736653Y-158980828D02*
X126879510Y-158909400D01*
X126879510Y-158909400D02*
X126950939Y-158766542D01*
X126950939Y-158766542D02*
X126950939Y-158695114D01*
X126950939Y-158695114D02*
X126879510Y-158552257D01*
X126879510Y-158552257D02*
X126736653Y-158480828D01*
X126736653Y-158480828D02*
X126522368Y-158480828D01*
X126522368Y-158480828D02*
X126379510Y-158409400D01*
X126379510Y-158409400D02*
X126308082Y-158266542D01*
X126308082Y-158266542D02*
X126308082Y-158195114D01*
X126308082Y-158195114D02*
X126379510Y-158052257D01*
X126379510Y-158052257D02*
X126522368Y-157980828D01*
X126522368Y-157980828D02*
X126736653Y-157980828D01*
X126736653Y-157980828D02*
X126879510Y-158052257D01*
X128165225Y-158909400D02*
X128022368Y-158980828D01*
X128022368Y-158980828D02*
X127736654Y-158980828D01*
X127736654Y-158980828D02*
X127593796Y-158909400D01*
X127593796Y-158909400D02*
X127522368Y-158766542D01*
X127522368Y-158766542D02*
X127522368Y-158195114D01*
X127522368Y-158195114D02*
X127593796Y-158052257D01*
X127593796Y-158052257D02*
X127736654Y-157980828D01*
X127736654Y-157980828D02*
X128022368Y-157980828D01*
X128022368Y-157980828D02*
X128165225Y-158052257D01*
X128165225Y-158052257D02*
X128236654Y-158195114D01*
X128236654Y-158195114D02*
X128236654Y-158337971D01*
X128236654Y-158337971D02*
X127522368Y-158480828D01*
X130450939Y-157480828D02*
X130450939Y-158552257D01*
X130450939Y-158552257D02*
X130379510Y-158766542D01*
X130379510Y-158766542D02*
X130236653Y-158909400D01*
X130236653Y-158909400D02*
X130022367Y-158980828D01*
X130022367Y-158980828D02*
X129879510Y-158980828D01*
X131808082Y-158980828D02*
X131808082Y-158195114D01*
X131808082Y-158195114D02*
X131736653Y-158052257D01*
X131736653Y-158052257D02*
X131593796Y-157980828D01*
X131593796Y-157980828D02*
X131308082Y-157980828D01*
X131308082Y-157980828D02*
X131165224Y-158052257D01*
X131808082Y-158909400D02*
X131665224Y-158980828D01*
X131665224Y-158980828D02*
X131308082Y-158980828D01*
X131308082Y-158980828D02*
X131165224Y-158909400D01*
X131165224Y-158909400D02*
X131093796Y-158766542D01*
X131093796Y-158766542D02*
X131093796Y-158623685D01*
X131093796Y-158623685D02*
X131165224Y-158480828D01*
X131165224Y-158480828D02*
X131308082Y-158409400D01*
X131308082Y-158409400D02*
X131665224Y-158409400D01*
X131665224Y-158409400D02*
X131808082Y-158337971D01*
X132522367Y-158980828D02*
X132522367Y-157480828D01*
X133165225Y-158980828D02*
X133165225Y-158195114D01*
X133165225Y-158195114D02*
X133093796Y-158052257D01*
X133093796Y-158052257D02*
X132950939Y-157980828D01*
X132950939Y-157980828D02*
X132736653Y-157980828D01*
X132736653Y-157980828D02*
X132593796Y-158052257D01*
X132593796Y-158052257D02*
X132522367Y-158123685D01*
X133879510Y-158980828D02*
X133879510Y-157980828D01*
X133879510Y-158266542D02*
X133950939Y-158123685D01*
X133950939Y-158123685D02*
X134022368Y-158052257D01*
X134022368Y-158052257D02*
X134165225Y-157980828D01*
X134165225Y-157980828D02*
X134308082Y-157980828D01*
X135950938Y-158980828D02*
X135950938Y-157480828D01*
X135950938Y-158052257D02*
X136093796Y-157980828D01*
X136093796Y-157980828D02*
X136379510Y-157980828D01*
X136379510Y-157980828D02*
X136522367Y-158052257D01*
X136522367Y-158052257D02*
X136593796Y-158123685D01*
X136593796Y-158123685D02*
X136665224Y-158266542D01*
X136665224Y-158266542D02*
X136665224Y-158695114D01*
X136665224Y-158695114D02*
X136593796Y-158837971D01*
X136593796Y-158837971D02*
X136522367Y-158909400D01*
X136522367Y-158909400D02*
X136379510Y-158980828D01*
X136379510Y-158980828D02*
X136093796Y-158980828D01*
X136093796Y-158980828D02*
X135950938Y-158909400D01*
X137879510Y-158909400D02*
X137736653Y-158980828D01*
X137736653Y-158980828D02*
X137450939Y-158980828D01*
X137450939Y-158980828D02*
X137308081Y-158909400D01*
X137308081Y-158909400D02*
X137236653Y-158766542D01*
X137236653Y-158766542D02*
X137236653Y-158195114D01*
X137236653Y-158195114D02*
X137308081Y-158052257D01*
X137308081Y-158052257D02*
X137450939Y-157980828D01*
X137450939Y-157980828D02*
X137736653Y-157980828D01*
X137736653Y-157980828D02*
X137879510Y-158052257D01*
X137879510Y-158052257D02*
X137950939Y-158195114D01*
X137950939Y-158195114D02*
X137950939Y-158337971D01*
X137950939Y-158337971D02*
X137236653Y-158480828D01*
X138522367Y-158909400D02*
X138665224Y-158980828D01*
X138665224Y-158980828D02*
X138950938Y-158980828D01*
X138950938Y-158980828D02*
X139093795Y-158909400D01*
X139093795Y-158909400D02*
X139165224Y-158766542D01*
X139165224Y-158766542D02*
X139165224Y-158695114D01*
X139165224Y-158695114D02*
X139093795Y-158552257D01*
X139093795Y-158552257D02*
X138950938Y-158480828D01*
X138950938Y-158480828D02*
X138736653Y-158480828D01*
X138736653Y-158480828D02*
X138593795Y-158409400D01*
X138593795Y-158409400D02*
X138522367Y-158266542D01*
X138522367Y-158266542D02*
X138522367Y-158195114D01*
X138522367Y-158195114D02*
X138593795Y-158052257D01*
X138593795Y-158052257D02*
X138736653Y-157980828D01*
X138736653Y-157980828D02*
X138950938Y-157980828D01*
X138950938Y-157980828D02*
X139093795Y-158052257D01*
X140022367Y-158980828D02*
X139879510Y-158909400D01*
X139879510Y-158909400D02*
X139808081Y-158837971D01*
X139808081Y-158837971D02*
X139736653Y-158695114D01*
X139736653Y-158695114D02*
X139736653Y-158266542D01*
X139736653Y-158266542D02*
X139808081Y-158123685D01*
X139808081Y-158123685D02*
X139879510Y-158052257D01*
X139879510Y-158052257D02*
X140022367Y-157980828D01*
X140022367Y-157980828D02*
X140236653Y-157980828D01*
X140236653Y-157980828D02*
X140379510Y-158052257D01*
X140379510Y-158052257D02*
X140450939Y-158123685D01*
X140450939Y-158123685D02*
X140522367Y-158266542D01*
X140522367Y-158266542D02*
X140522367Y-158695114D01*
X140522367Y-158695114D02*
X140450939Y-158837971D01*
X140450939Y-158837971D02*
X140379510Y-158909400D01*
X140379510Y-158909400D02*
X140236653Y-158980828D01*
X140236653Y-158980828D02*
X140022367Y-158980828D01*
X141165224Y-158980828D02*
X141165224Y-157980828D01*
X141165224Y-158266542D02*
X141236653Y-158123685D01*
X141236653Y-158123685D02*
X141308082Y-158052257D01*
X141308082Y-158052257D02*
X141450939Y-157980828D01*
X141450939Y-157980828D02*
X141593796Y-157980828D01*
X142736653Y-157980828D02*
X142736653Y-159195114D01*
X142736653Y-159195114D02*
X142665224Y-159337971D01*
X142665224Y-159337971D02*
X142593795Y-159409400D01*
X142593795Y-159409400D02*
X142450938Y-159480828D01*
X142450938Y-159480828D02*
X142236653Y-159480828D01*
X142236653Y-159480828D02*
X142093795Y-159409400D01*
X142736653Y-158909400D02*
X142593795Y-158980828D01*
X142593795Y-158980828D02*
X142308081Y-158980828D01*
X142308081Y-158980828D02*
X142165224Y-158909400D01*
X142165224Y-158909400D02*
X142093795Y-158837971D01*
X142093795Y-158837971D02*
X142022367Y-158695114D01*
X142022367Y-158695114D02*
X142022367Y-158266542D01*
X142022367Y-158266542D02*
X142093795Y-158123685D01*
X142093795Y-158123685D02*
X142165224Y-158052257D01*
X142165224Y-158052257D02*
X142308081Y-157980828D01*
X142308081Y-157980828D02*
X142593795Y-157980828D01*
X142593795Y-157980828D02*
X142736653Y-158052257D01*
X144022367Y-158909400D02*
X143879510Y-158980828D01*
X143879510Y-158980828D02*
X143593796Y-158980828D01*
X143593796Y-158980828D02*
X143450938Y-158909400D01*
X143450938Y-158909400D02*
X143379510Y-158766542D01*
X143379510Y-158766542D02*
X143379510Y-158195114D01*
X143379510Y-158195114D02*
X143450938Y-158052257D01*
X143450938Y-158052257D02*
X143593796Y-157980828D01*
X143593796Y-157980828D02*
X143879510Y-157980828D01*
X143879510Y-157980828D02*
X144022367Y-158052257D01*
X144022367Y-158052257D02*
X144093796Y-158195114D01*
X144093796Y-158195114D02*
X144093796Y-158337971D01*
X144093796Y-158337971D02*
X143379510Y-158480828D01*
X144736652Y-158837971D02*
X144808081Y-158909400D01*
X144808081Y-158909400D02*
X144736652Y-158980828D01*
X144736652Y-158980828D02*
X144665224Y-158909400D01*
X144665224Y-158909400D02*
X144736652Y-158837971D01*
X144736652Y-158837971D02*
X144736652Y-158980828D01*
X64886653Y-157330828D02*
X65243796Y-158830828D01*
X65243796Y-158830828D02*
X65529510Y-157759400D01*
X65529510Y-157759400D02*
X65815225Y-158830828D01*
X65815225Y-158830828D02*
X66172368Y-157330828D01*
X67315225Y-158759400D02*
X67172368Y-158830828D01*
X67172368Y-158830828D02*
X66886654Y-158830828D01*
X66886654Y-158830828D02*
X66743796Y-158759400D01*
X66743796Y-158759400D02*
X66672368Y-158616542D01*
X66672368Y-158616542D02*
X66672368Y-158045114D01*
X66672368Y-158045114D02*
X66743796Y-157902257D01*
X66743796Y-157902257D02*
X66886654Y-157830828D01*
X66886654Y-157830828D02*
X67172368Y-157830828D01*
X67172368Y-157830828D02*
X67315225Y-157902257D01*
X67315225Y-157902257D02*
X67386654Y-158045114D01*
X67386654Y-158045114D02*
X67386654Y-158187971D01*
X67386654Y-158187971D02*
X66672368Y-158330828D01*
X68029510Y-157830828D02*
X68029510Y-158830828D01*
X68029510Y-157973685D02*
X68100939Y-157902257D01*
X68100939Y-157902257D02*
X68243796Y-157830828D01*
X68243796Y-157830828D02*
X68458082Y-157830828D01*
X68458082Y-157830828D02*
X68600939Y-157902257D01*
X68600939Y-157902257D02*
X68672368Y-158045114D01*
X68672368Y-158045114D02*
X68672368Y-158830828D01*
X69386653Y-157830828D02*
X69386653Y-158830828D01*
X69386653Y-157973685D02*
X69458082Y-157902257D01*
X69458082Y-157902257D02*
X69600939Y-157830828D01*
X69600939Y-157830828D02*
X69815225Y-157830828D01*
X69815225Y-157830828D02*
X69958082Y-157902257D01*
X69958082Y-157902257D02*
X70029511Y-158045114D01*
X70029511Y-158045114D02*
X70029511Y-158830828D01*
X71886653Y-158830828D02*
X71886653Y-157830828D01*
X71886653Y-157330828D02*
X71815225Y-157402257D01*
X71815225Y-157402257D02*
X71886653Y-157473685D01*
X71886653Y-157473685D02*
X71958082Y-157402257D01*
X71958082Y-157402257D02*
X71886653Y-157330828D01*
X71886653Y-157330828D02*
X71886653Y-157473685D01*
X73243797Y-158759400D02*
X73100939Y-158830828D01*
X73100939Y-158830828D02*
X72815225Y-158830828D01*
X72815225Y-158830828D02*
X72672368Y-158759400D01*
X72672368Y-158759400D02*
X72600939Y-158687971D01*
X72600939Y-158687971D02*
X72529511Y-158545114D01*
X72529511Y-158545114D02*
X72529511Y-158116542D01*
X72529511Y-158116542D02*
X72600939Y-157973685D01*
X72600939Y-157973685D02*
X72672368Y-157902257D01*
X72672368Y-157902257D02*
X72815225Y-157830828D01*
X72815225Y-157830828D02*
X73100939Y-157830828D01*
X73100939Y-157830828D02*
X73243797Y-157902257D01*
X73886653Y-158830828D02*
X73886653Y-157330828D01*
X74529511Y-158830828D02*
X74529511Y-158045114D01*
X74529511Y-158045114D02*
X74458082Y-157902257D01*
X74458082Y-157902257D02*
X74315225Y-157830828D01*
X74315225Y-157830828D02*
X74100939Y-157830828D01*
X74100939Y-157830828D02*
X73958082Y-157902257D01*
X73958082Y-157902257D02*
X73886653Y-157973685D01*
X76315225Y-158759400D02*
X76458082Y-158830828D01*
X76458082Y-158830828D02*
X76743796Y-158830828D01*
X76743796Y-158830828D02*
X76886653Y-158759400D01*
X76886653Y-158759400D02*
X76958082Y-158616542D01*
X76958082Y-158616542D02*
X76958082Y-158545114D01*
X76958082Y-158545114D02*
X76886653Y-158402257D01*
X76886653Y-158402257D02*
X76743796Y-158330828D01*
X76743796Y-158330828D02*
X76529511Y-158330828D01*
X76529511Y-158330828D02*
X76386653Y-158259400D01*
X76386653Y-158259400D02*
X76315225Y-158116542D01*
X76315225Y-158116542D02*
X76315225Y-158045114D01*
X76315225Y-158045114D02*
X76386653Y-157902257D01*
X76386653Y-157902257D02*
X76529511Y-157830828D01*
X76529511Y-157830828D02*
X76743796Y-157830828D01*
X76743796Y-157830828D02*
X76886653Y-157902257D01*
X78243797Y-158830828D02*
X78243797Y-158045114D01*
X78243797Y-158045114D02*
X78172368Y-157902257D01*
X78172368Y-157902257D02*
X78029511Y-157830828D01*
X78029511Y-157830828D02*
X77743797Y-157830828D01*
X77743797Y-157830828D02*
X77600939Y-157902257D01*
X78243797Y-158759400D02*
X78100939Y-158830828D01*
X78100939Y-158830828D02*
X77743797Y-158830828D01*
X77743797Y-158830828D02*
X77600939Y-158759400D01*
X77600939Y-158759400D02*
X77529511Y-158616542D01*
X77529511Y-158616542D02*
X77529511Y-158473685D01*
X77529511Y-158473685D02*
X77600939Y-158330828D01*
X77600939Y-158330828D02*
X77743797Y-158259400D01*
X77743797Y-158259400D02*
X78100939Y-158259400D01*
X78100939Y-158259400D02*
X78243797Y-158187971D01*
X79600940Y-157830828D02*
X79600940Y-159045114D01*
X79600940Y-159045114D02*
X79529511Y-159187971D01*
X79529511Y-159187971D02*
X79458082Y-159259400D01*
X79458082Y-159259400D02*
X79315225Y-159330828D01*
X79315225Y-159330828D02*
X79100940Y-159330828D01*
X79100940Y-159330828D02*
X78958082Y-159259400D01*
X79600940Y-158759400D02*
X79458082Y-158830828D01*
X79458082Y-158830828D02*
X79172368Y-158830828D01*
X79172368Y-158830828D02*
X79029511Y-158759400D01*
X79029511Y-158759400D02*
X78958082Y-158687971D01*
X78958082Y-158687971D02*
X78886654Y-158545114D01*
X78886654Y-158545114D02*
X78886654Y-158116542D01*
X78886654Y-158116542D02*
X78958082Y-157973685D01*
X78958082Y-157973685D02*
X79029511Y-157902257D01*
X79029511Y-157902257D02*
X79172368Y-157830828D01*
X79172368Y-157830828D02*
X79458082Y-157830828D01*
X79458082Y-157830828D02*
X79600940Y-157902257D01*
X80886654Y-158759400D02*
X80743797Y-158830828D01*
X80743797Y-158830828D02*
X80458083Y-158830828D01*
X80458083Y-158830828D02*
X80315225Y-158759400D01*
X80315225Y-158759400D02*
X80243797Y-158616542D01*
X80243797Y-158616542D02*
X80243797Y-158045114D01*
X80243797Y-158045114D02*
X80315225Y-157902257D01*
X80315225Y-157902257D02*
X80458083Y-157830828D01*
X80458083Y-157830828D02*
X80743797Y-157830828D01*
X80743797Y-157830828D02*
X80886654Y-157902257D01*
X80886654Y-157902257D02*
X80958083Y-158045114D01*
X80958083Y-158045114D02*
X80958083Y-158187971D01*
X80958083Y-158187971D02*
X80243797Y-158330828D01*
X81672368Y-158759400D02*
X81672368Y-158830828D01*
X81672368Y-158830828D02*
X81600939Y-158973685D01*
X81600939Y-158973685D02*
X81529511Y-159045114D01*
X84100940Y-158830828D02*
X84100940Y-157330828D01*
X84100940Y-158759400D02*
X83958082Y-158830828D01*
X83958082Y-158830828D02*
X83672368Y-158830828D01*
X83672368Y-158830828D02*
X83529511Y-158759400D01*
X83529511Y-158759400D02*
X83458082Y-158687971D01*
X83458082Y-158687971D02*
X83386654Y-158545114D01*
X83386654Y-158545114D02*
X83386654Y-158116542D01*
X83386654Y-158116542D02*
X83458082Y-157973685D01*
X83458082Y-157973685D02*
X83529511Y-157902257D01*
X83529511Y-157902257D02*
X83672368Y-157830828D01*
X83672368Y-157830828D02*
X83958082Y-157830828D01*
X83958082Y-157830828D02*
X84100940Y-157902257D01*
X85458083Y-158830828D02*
X85458083Y-158045114D01*
X85458083Y-158045114D02*
X85386654Y-157902257D01*
X85386654Y-157902257D02*
X85243797Y-157830828D01*
X85243797Y-157830828D02*
X84958083Y-157830828D01*
X84958083Y-157830828D02*
X84815225Y-157902257D01*
X85458083Y-158759400D02*
X85315225Y-158830828D01*
X85315225Y-158830828D02*
X84958083Y-158830828D01*
X84958083Y-158830828D02*
X84815225Y-158759400D01*
X84815225Y-158759400D02*
X84743797Y-158616542D01*
X84743797Y-158616542D02*
X84743797Y-158473685D01*
X84743797Y-158473685D02*
X84815225Y-158330828D01*
X84815225Y-158330828D02*
X84958083Y-158259400D01*
X84958083Y-158259400D02*
X85315225Y-158259400D01*
X85315225Y-158259400D02*
X85458083Y-158187971D01*
X86100940Y-158759400D02*
X86243797Y-158830828D01*
X86243797Y-158830828D02*
X86529511Y-158830828D01*
X86529511Y-158830828D02*
X86672368Y-158759400D01*
X86672368Y-158759400D02*
X86743797Y-158616542D01*
X86743797Y-158616542D02*
X86743797Y-158545114D01*
X86743797Y-158545114D02*
X86672368Y-158402257D01*
X86672368Y-158402257D02*
X86529511Y-158330828D01*
X86529511Y-158330828D02*
X86315226Y-158330828D01*
X86315226Y-158330828D02*
X86172368Y-158259400D01*
X86172368Y-158259400D02*
X86100940Y-158116542D01*
X86100940Y-158116542D02*
X86100940Y-158045114D01*
X86100940Y-158045114D02*
X86172368Y-157902257D01*
X86172368Y-157902257D02*
X86315226Y-157830828D01*
X86315226Y-157830828D02*
X86529511Y-157830828D01*
X86529511Y-157830828D02*
X86672368Y-157902257D01*
X87315226Y-158759400D02*
X87458083Y-158830828D01*
X87458083Y-158830828D02*
X87743797Y-158830828D01*
X87743797Y-158830828D02*
X87886654Y-158759400D01*
X87886654Y-158759400D02*
X87958083Y-158616542D01*
X87958083Y-158616542D02*
X87958083Y-158545114D01*
X87958083Y-158545114D02*
X87886654Y-158402257D01*
X87886654Y-158402257D02*
X87743797Y-158330828D01*
X87743797Y-158330828D02*
X87529512Y-158330828D01*
X87529512Y-158330828D02*
X87386654Y-158259400D01*
X87386654Y-158259400D02*
X87315226Y-158116542D01*
X87315226Y-158116542D02*
X87315226Y-158045114D01*
X87315226Y-158045114D02*
X87386654Y-157902257D01*
X87386654Y-157902257D02*
X87529512Y-157830828D01*
X87529512Y-157830828D02*
X87743797Y-157830828D01*
X87743797Y-157830828D02*
X87886654Y-157902257D01*
X89743797Y-158830828D02*
X89743797Y-157830828D01*
X89743797Y-157330828D02*
X89672369Y-157402257D01*
X89672369Y-157402257D02*
X89743797Y-157473685D01*
X89743797Y-157473685D02*
X89815226Y-157402257D01*
X89815226Y-157402257D02*
X89743797Y-157330828D01*
X89743797Y-157330828D02*
X89743797Y-157473685D01*
X91100941Y-158759400D02*
X90958083Y-158830828D01*
X90958083Y-158830828D02*
X90672369Y-158830828D01*
X90672369Y-158830828D02*
X90529512Y-158759400D01*
X90529512Y-158759400D02*
X90458083Y-158687971D01*
X90458083Y-158687971D02*
X90386655Y-158545114D01*
X90386655Y-158545114D02*
X90386655Y-158116542D01*
X90386655Y-158116542D02*
X90458083Y-157973685D01*
X90458083Y-157973685D02*
X90529512Y-157902257D01*
X90529512Y-157902257D02*
X90672369Y-157830828D01*
X90672369Y-157830828D02*
X90958083Y-157830828D01*
X90958083Y-157830828D02*
X91100941Y-157902257D01*
X91743797Y-158830828D02*
X91743797Y-157330828D01*
X92386655Y-158830828D02*
X92386655Y-158045114D01*
X92386655Y-158045114D02*
X92315226Y-157902257D01*
X92315226Y-157902257D02*
X92172369Y-157830828D01*
X92172369Y-157830828D02*
X91958083Y-157830828D01*
X91958083Y-157830828D02*
X91815226Y-157902257D01*
X91815226Y-157902257D02*
X91743797Y-157973685D01*
X94886655Y-158830828D02*
X94886655Y-157330828D01*
X94886655Y-158759400D02*
X94743797Y-158830828D01*
X94743797Y-158830828D02*
X94458083Y-158830828D01*
X94458083Y-158830828D02*
X94315226Y-158759400D01*
X94315226Y-158759400D02*
X94243797Y-158687971D01*
X94243797Y-158687971D02*
X94172369Y-158545114D01*
X94172369Y-158545114D02*
X94172369Y-158116542D01*
X94172369Y-158116542D02*
X94243797Y-157973685D01*
X94243797Y-157973685D02*
X94315226Y-157902257D01*
X94315226Y-157902257D02*
X94458083Y-157830828D01*
X94458083Y-157830828D02*
X94743797Y-157830828D01*
X94743797Y-157830828D02*
X94886655Y-157902257D01*
X96172369Y-158759400D02*
X96029512Y-158830828D01*
X96029512Y-158830828D02*
X95743798Y-158830828D01*
X95743798Y-158830828D02*
X95600940Y-158759400D01*
X95600940Y-158759400D02*
X95529512Y-158616542D01*
X95529512Y-158616542D02*
X95529512Y-158045114D01*
X95529512Y-158045114D02*
X95600940Y-157902257D01*
X95600940Y-157902257D02*
X95743798Y-157830828D01*
X95743798Y-157830828D02*
X96029512Y-157830828D01*
X96029512Y-157830828D02*
X96172369Y-157902257D01*
X96172369Y-157902257D02*
X96243798Y-158045114D01*
X96243798Y-158045114D02*
X96243798Y-158187971D01*
X96243798Y-158187971D02*
X95529512Y-158330828D01*
X96886654Y-157830828D02*
X96886654Y-158830828D01*
X96886654Y-157973685D02*
X96958083Y-157902257D01*
X96958083Y-157902257D02*
X97100940Y-157830828D01*
X97100940Y-157830828D02*
X97315226Y-157830828D01*
X97315226Y-157830828D02*
X97458083Y-157902257D01*
X97458083Y-157902257D02*
X97529512Y-158045114D01*
X97529512Y-158045114D02*
X97529512Y-158830828D01*
D11*
X166033333Y-77454819D02*
X165557143Y-77454819D01*
X165557143Y-77454819D02*
X165509524Y-77931009D01*
X165509524Y-77931009D02*
X165557143Y-77883390D01*
X165557143Y-77883390D02*
X165652381Y-77835771D01*
X165652381Y-77835771D02*
X165890476Y-77835771D01*
X165890476Y-77835771D02*
X165985714Y-77883390D01*
X165985714Y-77883390D02*
X166033333Y-77931009D01*
X166033333Y-77931009D02*
X166080952Y-78026247D01*
X166080952Y-78026247D02*
X166080952Y-78264342D01*
X166080952Y-78264342D02*
X166033333Y-78359580D01*
X166033333Y-78359580D02*
X165985714Y-78407200D01*
X165985714Y-78407200D02*
X165890476Y-78454819D01*
X165890476Y-78454819D02*
X165652381Y-78454819D01*
X165652381Y-78454819D02*
X165557143Y-78407200D01*
X165557143Y-78407200D02*
X165509524Y-78359580D01*
X166366667Y-77454819D02*
X166700000Y-78454819D01*
X166700000Y-78454819D02*
X167033333Y-77454819D01*
X167319048Y-77550057D02*
X167366667Y-77502438D01*
X167366667Y-77502438D02*
X167461905Y-77454819D01*
X167461905Y-77454819D02*
X167700000Y-77454819D01*
X167700000Y-77454819D02*
X167795238Y-77502438D01*
X167795238Y-77502438D02*
X167842857Y-77550057D01*
X167842857Y-77550057D02*
X167890476Y-77645295D01*
X167890476Y-77645295D02*
X167890476Y-77740533D01*
X167890476Y-77740533D02*
X167842857Y-77883390D01*
X167842857Y-77883390D02*
X167271429Y-78454819D01*
X167271429Y-78454819D02*
X167890476Y-78454819D01*
X102483333Y-137904819D02*
X102007143Y-137904819D01*
X102007143Y-137904819D02*
X101959524Y-138381009D01*
X101959524Y-138381009D02*
X102007143Y-138333390D01*
X102007143Y-138333390D02*
X102102381Y-138285771D01*
X102102381Y-138285771D02*
X102340476Y-138285771D01*
X102340476Y-138285771D02*
X102435714Y-138333390D01*
X102435714Y-138333390D02*
X102483333Y-138381009D01*
X102483333Y-138381009D02*
X102530952Y-138476247D01*
X102530952Y-138476247D02*
X102530952Y-138714342D01*
X102530952Y-138714342D02*
X102483333Y-138809580D01*
X102483333Y-138809580D02*
X102435714Y-138857200D01*
X102435714Y-138857200D02*
X102340476Y-138904819D01*
X102340476Y-138904819D02*
X102102381Y-138904819D01*
X102102381Y-138904819D02*
X102007143Y-138857200D01*
X102007143Y-138857200D02*
X101959524Y-138809580D01*
X102816667Y-137904819D02*
X103150000Y-138904819D01*
X103150000Y-138904819D02*
X103483333Y-137904819D01*
X104340476Y-138904819D02*
X103769048Y-138904819D01*
X104054762Y-138904819D02*
X104054762Y-137904819D01*
X104054762Y-137904819D02*
X103959524Y-138047676D01*
X103959524Y-138047676D02*
X103864286Y-138142914D01*
X103864286Y-138142914D02*
X103769048Y-138190533D01*
X159100000Y-69354819D02*
X159100000Y-68354819D01*
X159100000Y-68354819D02*
X159338095Y-68354819D01*
X159338095Y-68354819D02*
X159480952Y-68402438D01*
X159480952Y-68402438D02*
X159576190Y-68497676D01*
X159576190Y-68497676D02*
X159623809Y-68592914D01*
X159623809Y-68592914D02*
X159671428Y-68783390D01*
X159671428Y-68783390D02*
X159671428Y-68926247D01*
X159671428Y-68926247D02*
X159623809Y-69116723D01*
X159623809Y-69116723D02*
X159576190Y-69211961D01*
X159576190Y-69211961D02*
X159480952Y-69307200D01*
X159480952Y-69307200D02*
X159338095Y-69354819D01*
X159338095Y-69354819D02*
X159100000Y-69354819D01*
X160100000Y-69354819D02*
X160100000Y-68354819D01*
X160576190Y-69354819D02*
X160576190Y-68354819D01*
X160576190Y-68354819D02*
X161147618Y-69354819D01*
X161147618Y-69354819D02*
X161147618Y-68354819D01*
X162147618Y-69354819D02*
X161576190Y-69354819D01*
X161861904Y-69354819D02*
X161861904Y-68354819D01*
X161861904Y-68354819D02*
X161766666Y-68497676D01*
X161766666Y-68497676D02*
X161671428Y-68592914D01*
X161671428Y-68592914D02*
X161576190Y-68640533D01*
X166261904Y-72402438D02*
X166166666Y-72354819D01*
X166166666Y-72354819D02*
X166023809Y-72354819D01*
X166023809Y-72354819D02*
X165880952Y-72402438D01*
X165880952Y-72402438D02*
X165785714Y-72497676D01*
X165785714Y-72497676D02*
X165738095Y-72592914D01*
X165738095Y-72592914D02*
X165690476Y-72783390D01*
X165690476Y-72783390D02*
X165690476Y-72926247D01*
X165690476Y-72926247D02*
X165738095Y-73116723D01*
X165738095Y-73116723D02*
X165785714Y-73211961D01*
X165785714Y-73211961D02*
X165880952Y-73307200D01*
X165880952Y-73307200D02*
X166023809Y-73354819D01*
X166023809Y-73354819D02*
X166119047Y-73354819D01*
X166119047Y-73354819D02*
X166261904Y-73307200D01*
X166261904Y-73307200D02*
X166309523Y-73259580D01*
X166309523Y-73259580D02*
X166309523Y-72926247D01*
X166309523Y-72926247D02*
X166119047Y-72926247D01*
X166738095Y-73354819D02*
X166738095Y-72354819D01*
X166738095Y-72354819D02*
X167309523Y-73354819D01*
X167309523Y-73354819D02*
X167309523Y-72354819D01*
X167785714Y-73354819D02*
X167785714Y-72354819D01*
X167785714Y-72354819D02*
X168023809Y-72354819D01*
X168023809Y-72354819D02*
X168166666Y-72402438D01*
X168166666Y-72402438D02*
X168261904Y-72497676D01*
X168261904Y-72497676D02*
X168309523Y-72592914D01*
X168309523Y-72592914D02*
X168357142Y-72783390D01*
X168357142Y-72783390D02*
X168357142Y-72926247D01*
X168357142Y-72926247D02*
X168309523Y-73116723D01*
X168309523Y-73116723D02*
X168261904Y-73211961D01*
X168261904Y-73211961D02*
X168166666Y-73307200D01*
X168166666Y-73307200D02*
X168023809Y-73354819D01*
X168023809Y-73354819D02*
X167785714Y-73354819D01*
X168738095Y-72450057D02*
X168785714Y-72402438D01*
X168785714Y-72402438D02*
X168880952Y-72354819D01*
X168880952Y-72354819D02*
X169119047Y-72354819D01*
X169119047Y-72354819D02*
X169214285Y-72402438D01*
X169214285Y-72402438D02*
X169261904Y-72450057D01*
X169261904Y-72450057D02*
X169309523Y-72545295D01*
X169309523Y-72545295D02*
X169309523Y-72640533D01*
X169309523Y-72640533D02*
X169261904Y-72783390D01*
X169261904Y-72783390D02*
X168690476Y-73354819D01*
X168690476Y-73354819D02*
X169309523Y-73354819D01*
X102411904Y-142852438D02*
X102316666Y-142804819D01*
X102316666Y-142804819D02*
X102173809Y-142804819D01*
X102173809Y-142804819D02*
X102030952Y-142852438D01*
X102030952Y-142852438D02*
X101935714Y-142947676D01*
X101935714Y-142947676D02*
X101888095Y-143042914D01*
X101888095Y-143042914D02*
X101840476Y-143233390D01*
X101840476Y-143233390D02*
X101840476Y-143376247D01*
X101840476Y-143376247D02*
X101888095Y-143566723D01*
X101888095Y-143566723D02*
X101935714Y-143661961D01*
X101935714Y-143661961D02*
X102030952Y-143757200D01*
X102030952Y-143757200D02*
X102173809Y-143804819D01*
X102173809Y-143804819D02*
X102269047Y-143804819D01*
X102269047Y-143804819D02*
X102411904Y-143757200D01*
X102411904Y-143757200D02*
X102459523Y-143709580D01*
X102459523Y-143709580D02*
X102459523Y-143376247D01*
X102459523Y-143376247D02*
X102269047Y-143376247D01*
X102888095Y-143804819D02*
X102888095Y-142804819D01*
X102888095Y-142804819D02*
X103459523Y-143804819D01*
X103459523Y-143804819D02*
X103459523Y-142804819D01*
X103935714Y-143804819D02*
X103935714Y-142804819D01*
X103935714Y-142804819D02*
X104173809Y-142804819D01*
X104173809Y-142804819D02*
X104316666Y-142852438D01*
X104316666Y-142852438D02*
X104411904Y-142947676D01*
X104411904Y-142947676D02*
X104459523Y-143042914D01*
X104459523Y-143042914D02*
X104507142Y-143233390D01*
X104507142Y-143233390D02*
X104507142Y-143376247D01*
X104507142Y-143376247D02*
X104459523Y-143566723D01*
X104459523Y-143566723D02*
X104411904Y-143661961D01*
X104411904Y-143661961D02*
X104316666Y-143757200D01*
X104316666Y-143757200D02*
X104173809Y-143804819D01*
X104173809Y-143804819D02*
X103935714Y-143804819D01*
X105459523Y-143804819D02*
X104888095Y-143804819D01*
X105173809Y-143804819D02*
X105173809Y-142804819D01*
X105173809Y-142804819D02*
X105078571Y-142947676D01*
X105078571Y-142947676D02*
X104983333Y-143042914D01*
X104983333Y-143042914D02*
X104888095Y-143090533D01*
D12*
%TO.C,C104*%
X118727500Y-90312742D02*
X118727500Y-90787258D01*
X119772500Y-90312742D02*
X119772500Y-90787258D01*
%TO.C,D134*%
X205450000Y-76950000D02*
X198150000Y-76950000D01*
X205450000Y-71450000D02*
X198150000Y-71450000D01*
X198150000Y-71450000D02*
X198150000Y-72600000D01*
%TO.C,C108*%
X86487258Y-107527500D02*
X86012742Y-107527500D01*
X86487258Y-108572500D02*
X86012742Y-108572500D01*
%TO.C,C124*%
X114740000Y-141238748D02*
X114740000Y-142661252D01*
X116560000Y-141238748D02*
X116560000Y-142661252D01*
%TO.C,D102*%
X124900000Y-113700000D02*
X124900000Y-114850000D01*
X132200000Y-113700000D02*
X124900000Y-113700000D01*
X132200000Y-119200000D02*
X124900000Y-119200000D01*
%TO.C,D132*%
X195450000Y-106950000D02*
X188150000Y-106950000D01*
X195450000Y-101450000D02*
X188150000Y-101450000D01*
X188150000Y-101450000D02*
X188150000Y-102600000D01*
%TO.C,D126*%
X151450000Y-118950000D02*
X144150000Y-118950000D01*
X151450000Y-113450000D02*
X144150000Y-113450000D01*
X144150000Y-113450000D02*
X144150000Y-114600000D01*
%TO.C,D103*%
X112900000Y-101700000D02*
X120200000Y-101700000D01*
X112900000Y-107200000D02*
X120200000Y-107200000D01*
X120200000Y-107200000D02*
X120200000Y-106050000D01*
%TO.C,D131*%
X183450000Y-118950000D02*
X176150000Y-118950000D01*
X183450000Y-113450000D02*
X176150000Y-113450000D01*
X176150000Y-113450000D02*
X176150000Y-114600000D01*
%TO.C,D111*%
X58900000Y-143700000D02*
X66200000Y-143700000D01*
X58900000Y-149200000D02*
X66200000Y-149200000D01*
X66200000Y-149200000D02*
X66200000Y-148050000D01*
%TO.C,D109*%
X68900000Y-113700000D02*
X76200000Y-113700000D01*
X68900000Y-119200000D02*
X76200000Y-119200000D01*
X76200000Y-119200000D02*
X76200000Y-118050000D01*
%TO.C,D104*%
X119900000Y-88700000D02*
X119900000Y-89850000D01*
X127200000Y-88700000D02*
X119900000Y-88700000D01*
X127200000Y-94200000D02*
X119900000Y-94200000D01*
%TO.C,C106*%
X94487258Y-79527500D02*
X94012742Y-79527500D01*
X94487258Y-80572500D02*
X94012742Y-80572500D01*
%TO.C,D129*%
X175450000Y-146950000D02*
X168150000Y-146950000D01*
X175450000Y-141450000D02*
X168150000Y-141450000D01*
X168150000Y-141450000D02*
X168150000Y-142600000D01*
%TO.C,D125*%
X139450000Y-107050000D02*
X139450000Y-105900000D01*
X132150000Y-107050000D02*
X139450000Y-107050000D01*
X132150000Y-101550000D02*
X139450000Y-101550000D01*
%TO.C,D130*%
X190450000Y-131950000D02*
X183150000Y-131950000D01*
X190450000Y-126450000D02*
X183150000Y-126450000D01*
X183150000Y-126450000D02*
X183150000Y-127600000D01*
%TO.C,D107*%
X73900000Y-88700000D02*
X81200000Y-88700000D01*
X73900000Y-94200000D02*
X81200000Y-94200000D01*
X81200000Y-94200000D02*
X81200000Y-93050000D01*
%TO.C,C116*%
X145622500Y-130437258D02*
X145622500Y-129962742D01*
X144577500Y-130437258D02*
X144577500Y-129962742D01*
%TO.C,C112*%
X130622500Y-75237258D02*
X130622500Y-74762742D01*
X129577500Y-75237258D02*
X129577500Y-74762742D01*
%TO.C,D127*%
X144450000Y-131950000D02*
X144450000Y-130800000D01*
X137150000Y-131950000D02*
X144450000Y-131950000D01*
X137150000Y-126450000D02*
X144450000Y-126450000D01*
%TO.C,C101*%
X133727500Y-145312742D02*
X133727500Y-145787258D01*
X134772500Y-145312742D02*
X134772500Y-145787258D01*
%TO.C,D133*%
X190450000Y-91950000D02*
X183150000Y-91950000D01*
X190450000Y-86450000D02*
X183150000Y-86450000D01*
X183150000Y-86450000D02*
X183150000Y-87600000D01*
%TO.C,D108*%
X80900000Y-101700000D02*
X88200000Y-101700000D01*
X80900000Y-107200000D02*
X88200000Y-107200000D01*
X88200000Y-107200000D02*
X88200000Y-106050000D01*
%TO.C,D124*%
X144450000Y-91950000D02*
X137150000Y-91950000D01*
X144450000Y-86450000D02*
X137150000Y-86450000D01*
X137150000Y-86450000D02*
X137150000Y-87600000D01*
%TO.C,C120*%
X177962742Y-113122500D02*
X178437258Y-113122500D01*
X177962742Y-112077500D02*
X178437258Y-112077500D01*
%TO.C,C122*%
X184862742Y-86222500D02*
X185337258Y-86222500D01*
X184862742Y-85177500D02*
X185337258Y-85177500D01*
%TO.C,D110*%
X73900000Y-128700000D02*
X81200000Y-128700000D01*
X73900000Y-134200000D02*
X81200000Y-134200000D01*
X81200000Y-134200000D02*
X81200000Y-133050000D01*
%TO.C,D101*%
X134900000Y-143700000D02*
X134900000Y-144850000D01*
X142200000Y-143700000D02*
X134900000Y-143700000D01*
X142200000Y-149200000D02*
X134900000Y-149200000D01*
%TO.C,U101*%
D13*
X115550000Y-144530000D02*
X105390000Y-144530000D01*
X105390000Y-134370000D01*
X115550000Y-134370000D01*
X115550000Y-144530000D01*
X126450000Y-143950000D02*
X121050000Y-143950000D01*
X121050000Y-134950000D01*
X126450000Y-134950000D01*
X126450000Y-143950000D01*
X126450000Y-144450000D02*
X120550000Y-144450000D01*
X120550000Y-134450000D01*
X126450000Y-134450000D01*
X126450000Y-144450000D01*
D11*
X126450000Y-148550000D02*
X104650000Y-148550000D01*
X104650000Y-130350000D01*
X126450000Y-130350000D01*
X126450000Y-148550000D01*
D12*
%TO.C,D128*%
X159450000Y-146950000D02*
X152150000Y-146950000D01*
X159450000Y-141450000D02*
X152150000Y-141450000D01*
X152150000Y-141450000D02*
X152150000Y-142600000D01*
%TO.C,D105*%
X104900000Y-73700000D02*
X112200000Y-73700000D01*
X104900000Y-79200000D02*
X112200000Y-79200000D01*
X112200000Y-79200000D02*
X112200000Y-78050000D01*
%TO.C,C114*%
X140622500Y-105437258D02*
X140622500Y-104962742D01*
X139577500Y-105437258D02*
X139577500Y-104962742D01*
%TO.C,C110*%
X79487258Y-134427500D02*
X79012742Y-134427500D01*
X79487258Y-135472500D02*
X79012742Y-135472500D01*
%TO.C,C118*%
X169962742Y-141122500D02*
X170437258Y-141122500D01*
X169962742Y-140077500D02*
X170437258Y-140077500D01*
%TO.C,D106*%
X88900000Y-73700000D02*
X96200000Y-73700000D01*
X88900000Y-79200000D02*
X96200000Y-79200000D01*
X96200000Y-79200000D02*
X96200000Y-78050000D01*
%TO.C,C102*%
X123727500Y-115312742D02*
X123727500Y-115787258D01*
X124772500Y-115312742D02*
X124772500Y-115787258D01*
%TO.C,D123*%
X129450000Y-76950000D02*
X129450000Y-75800000D01*
X122150000Y-76950000D02*
X129450000Y-76950000D01*
X122150000Y-71450000D02*
X129450000Y-71450000D01*
%TD*%
M02*
